#!OML:ASF F:\VICON\USERDATA\INSTALL\rory3\rory3.ASF
:FULLY-SPECIFIED
:DEGREES
1988
root 0.42564 17.7824 0.566379 5.16786 34.7118 -9.31144
lowerback 6.51018 6.12913 0.061717
upperback 1.82304 8.10325 -4.36363
thorax -1.09009 4.07876 -5.10246
lowerneck -23.0138 -13.0683 -11.8279
upperneck 13.0389 -16.6046 12.6403
head 9.96669 -7.06375 3.52996
rclavicle -1.43125e-013 3.65764e-014
rhumerus 55.2795 -4.16512 -28.5407
rradius 48.9693
rwrist 52.0419
rhand -57.6323 -9.97029
rfingers 7.12502
rthumb -29.8951 -37.5765
lclavicle -1.43125e-013 3.65764e-014
lhumerus 90.145 -51.755 23.5533
lradius 39.0842
lwrist -43.5861
lhand -45.3783 48.9703
lfingers 7.12502
lthumb -18.1476 78.1437
rfemur -8.68234 -10.6817 20.8864
rtibia 18.744
rfoot -20.5319 -19.4598
rtoes -1.30891
lfemur -29.5684 -3.50762 -8.22767
ltibia 35.2037
lfoot -13.3408 -6.50869
ltoes -15.9793
1989
root 0.423178 17.7835 0.559098 5.25729 34.5636 -9.27831
lowerback 6.41662 6.09144 -0.0890576
upperback 1.9197 8.04942 -4.3304
thorax -0.968803 4.05385 -4.96422
lowerneck -23.3001 -13.1194 -12.0396
upperneck 13.2886 -16.6105 12.6607
head 10.1245 -7.05454 3.55316
rclavicle 6.99722e-014 -6.36111e-015
rhumerus 55.0784 -3.89938 -27.881
rradius 49.4329
rwrist 52.2243
rhand -57.6376 -10.3482
rfingers 7.12502
rthumb -29.9001 -37.9535
lclavicle 6.99722e-014 -6.36111e-015
lhumerus 90.145 -51.755 23.5533
lradius 39.0842
lwrist -43.5861
lhand -45.3783 48.9703
lfingers 7.12502
lthumb -18.1476 78.1437
rfemur -8.9557 -10.9501 20.881
rtibia 19.0348
rfoot -20.2564 -19.2566
rtoes -2.17722
lfemur -29.5869 -3.40114 -8.27904
ltibia 35.1333
lfoot -13.3342 -6.4141
ltoes -16.548
1990
root 0.419219 17.7822 0.553363 5.28935 34.4514 -9.28678
lowerback 6.41768 6.04879 -0.156429
upperback 1.91355 7.98763 -4.35912
thorax -0.985975 4.02252 -4.95448
lowerneck -23.2873 -13.1133 -12.1813
upperneck 13.4621 -16.5903 12.704
head 10.1989 -7.04414 3.59216
rclavicle 5.32743e-014 -5.24792e-014
rhumerus 54.6196 -3.54795 -27.3066
rradius 50.0427
rwrist 52.2851
rhand -57.7135 -10.6705
rfingers 7.12502
rthumb -29.9725 -38.2628
lclavicle 5.32743e-014 -5.24792e-014
lhumerus 90.145 -51.755 23.5533
lradius 39.0842
lwrist -43.5861
lhand -45.3783 48.9703
lfingers 7.12502
lthumb -18.1476 78.1437
rfemur -9.14727 -11.111 20.9106
rtibia 19.2178
rfoot -20.0138 -19.1909
rtoes -2.83029
lfemur -29.6111 -3.37011 -8.25815
ltibia 35.1335
lfoot -13.3469 -6.30771
ltoes -16.7643
1991
root 0.41336 17.7785 0.547978 5.16784 34.374 -9.28488
lowerback 6.57275 6.01845 -0.187706
upperback 1.91354 7.94045 -4.39331
thorax -1.07478 3.99788 -4.9894
lowerneck -23.035 -13.0832 -12.216
upperneck 13.4859 -16.5843 12.7591
head 10.1736 -7.04903 3.62735
rclavicle 1.59028e-014 4.13472e-014
rhumerus 53.9931 -3.17685 -26.8116
rradius 50.723
rwrist 52.3174
rhand -57.758 -10.9633
rfingers 7.12502
rthumb -30.015 -38.5479
lclavicle 1.59028e-014 4.13472e-014
lhumerus 90.145 -51.755 23.5533
lradius 39.0842
lwrist -43.5861
lhand -45.3783 48.9703
lfingers 7.12502
lthumb -18.1476 78.1437
rfemur -9.13348 -11.2209 20.8873
rtibia 19.3318
rfoot -19.85 -19.0955
rtoes -3.14234
lfemur -29.4892 -3.45851 -8.2299
ltibia 35.1645
lfoot -13.3686 -6.17203
ltoes -16.8757
1992
root 0.405546 17.7769 0.544228 5.05091 34.2176 -9.24522
lowerback 6.67786 6.03264 -0.317177
upperback 1.92636 7.9476 -4.41737
thorax -1.13301 4.00048 -4.95647
lowerneck -22.6139 -13.0453 -12.0767
upperneck 13.3311 -16.5936 12.702
head 10.0303 -7.07716 3.60326
rclavicle 6.99722e-014 5.08889e-014
rhumerus 53.3568 -2.77419 -26.3766
rradius 51.3073
rwrist 52.224
rhand -57.6547 -11.0996
rfingers 7.12502
rthumb -29.9164 -38.7019
lclavicle 6.99722e-014 5.08889e-014
lhumerus 90.145 -51.755 23.5533
lradius 39.0842
lwrist -43.5861
lhand -45.3783 48.9703
lfingers 7.12502
lthumb -18.1476 78.1437
rfemur -9.06696 -11.2124 20.8328
rtibia 19.3948
rfoot -19.8378 -18.91
rtoes -2.82964
lfemur -29.3298 -3.50997 -8.22889
ltibia 35.194
lfoot -13.3938 -5.99493
ltoes -16.8935
1993
root 0.396756 17.7751 0.541357 4.90041 34.0064 -9.37143
lowerback 6.73719 6.07849 -0.34386
upperback 1.88696 8.00272 -4.42654
thorax -1.20432 4.02633 -4.96522
lowerneck -22.1231 -13.0385 -12.0563
upperneck 13.2467 -16.6529 12.765
head 9.93047 -7.12284 3.63041
rclavicle -3.18055e-014 3.81667e-014
rhumerus 52.5756 -2.35742 -25.9877
rradius 51.921
rwrist 52.227
rhand -57.5578 -11.4606
rfingers 7.12502
rthumb -29.8239 -39.0796
lclavicle -3.18055e-014 3.81667e-014
lhumerus 90.145 -51.755 23.5533
lradius 39.0842
lwrist -43.5861
lhand -45.3783 48.9703
lfingers 7.12502
lthumb -18.1476 78.1437
rfemur -9.04086 -11.15 20.9452
rtibia 19.4301
rfoot -19.8353 -18.7053
rtoes -2.40292
lfemur -29.2329 -3.41011 -8.08393
ltibia 35.2353
lfoot -13.4082 -5.87724
ltoes -17.0855
